<svg version="1.1" id="Layer_1" xmlns="http://www.w3.org/2000/svg" xmlns:xlink="http://www.w3.org/1999/xlink" x="0px" y="0px"
	 width="100%" viewBox="0 0 1080 1080" enable-background="new 0 0 1080 1080" xml:space="preserve">
<path fill="#FFFFFF" opacity="1.000000" stroke="none" 
	d="
M1.000000,413.000000 
	C1.000000,275.680328 1.000000,138.360672 1.000000,1.020505 
	C360.950470,1.020505 720.900940,1.020505 1080.925781,1.020505 
	C1080.925781,360.914673 1080.925781,720.829346 1080.925781,1080.872070 
	C721.121216,1080.872070 361.242371,1080.872070 1.000000,1080.872070 
	C1.000000,921.970825 1.000000,762.941345 1.465464,603.514526 
	C14.618458,603.070618 27.305986,603.024048 40.081741,603.231750 
	C40.763363,603.405579 41.356762,603.325073 42.358170,603.254639 
	C43.844738,603.175903 44.923290,603.087158 46.466965,603.059082 
	C60.137074,603.119751 73.342056,603.119751 86.740433,603.119751 
	C86.740433,600.441345 86.740326,598.628906 86.740456,596.816528 
	C86.742004,575.874634 86.658562,554.932190 86.778580,533.990967 
	C86.845406,522.330872 92.323563,515.860901 102.997520,514.683167 
	C114.640968,519.624207 118.975540,526.125732 118.984200,538.955994 
	C118.997902,559.254883 119.000412,579.553833 118.975410,599.852722 
	C118.971924,602.680908 119.047241,605.206665 123.407593,603.320068 
	C124.570770,603.160889 125.340454,603.026123 126.564774,602.978516 
	C140.259293,603.065613 153.499146,603.065613 167.107162,603.065613 
	C167.107162,601.136780 167.107132,599.679443 167.107162,598.222168 
	C167.107590,576.795593 167.042114,555.368774 167.135101,533.942627 
	C167.184708,522.514526 173.285599,515.543823 183.988861,514.661743 
	C195.655472,519.362671 199.495361,528.002441 199.188263,539.991150 
	C198.677780,559.919922 199.048172,579.871338 199.051300,599.813171 
	C199.051712,602.448914 198.821182,605.371277 203.396698,603.278198 
	C204.867584,603.176147 205.934677,603.087280 207.466919,603.059082 
	C221.133438,603.119751 234.334839,603.119751 248.198029,603.119751 
	C248.198029,594.410583 248.198029,586.577209 248.198029,578.743774 
	C258.355316,592.352173 270.783966,601.785461 287.187195,605.172546 
	C303.465393,608.533691 318.886688,606.439514 333.173340,596.915955 
	C333.924988,599.176697 334.308197,601.212036 334.789062,603.766296 
	C336.923279,603.503906 338.961548,603.253357 341.465271,603.061401 
	C354.879425,603.120117 367.828125,603.120117 381.455811,603.120117 
	C381.455811,593.238464 381.455811,583.906311 381.455811,574.574158 
	C381.868805,574.338867 382.281830,574.103577 382.694824,573.868286 
	C391.535553,589.981140 404.385345,601.116211 422.262878,604.957458 
	C439.769073,608.718994 456.910309,606.803894 473.091003,598.409241 
	C476.733978,617.857056 461.958893,632.930176 442.145416,630.715149 
	C431.085022,629.478638 421.639984,625.472839 415.173065,615.393005 
	C403.087250,621.159241 391.382904,626.743469 379.615540,632.357788 
	C385.804596,645.491699 395.104279,654.249573 407.556488,659.329895 
	C431.882690,669.254456 456.702515,669.397278 481.170746,660.435120 
	C499.088348,653.872253 511.370117,641.167114 515.461609,621.937256 
	C516.698425,616.124329 516.714172,610.051514 517.583496,604.106018 
	C518.599182,603.855347 519.320557,603.596436 520.421753,603.326355 
	C521.546936,603.199158 522.292297,603.083008 523.499756,603.034180 
	C537.298157,603.035767 550.634521,602.969971 564.107666,603.183350 
	C565.144470,603.392944 566.044495,603.323486 567.357056,603.266174 
	C568.858521,603.174988 569.947388,603.071533 571.498291,603.035767 
	C585.218323,603.103394 598.476196,603.103394 611.951538,603.103394 
	C611.951538,580.753784 611.913818,559.114990 611.965271,537.476379 
	C611.997681,523.845825 622.775208,513.335266 636.313721,513.743286 
	C636.407532,514.644531 636.537476,515.469666 636.989563,515.725586 
	C646.727356,521.237427 650.168640,529.850952 650.052734,540.661804 
	C649.841064,560.397217 650.005493,580.136536 649.978943,599.874268 
	C649.975159,602.706787 650.073608,605.200562 654.407593,603.318420 
	C655.571472,603.159668 656.341614,603.024536 657.566162,602.977234 
	C671.287598,603.065063 684.554565,603.065063 698.542236,603.065063 
	C698.542236,594.576843 698.542236,586.628723 698.542236,578.680542 
	C708.840332,591.909485 720.933655,601.647583 737.165771,605.083984 
	C753.419617,608.525024 768.928284,606.668030 783.301270,597.114014 
	C784.031677,599.341003 784.389343,601.376099 784.839355,603.937012 
	C786.995911,603.565613 789.006836,603.219360 791.477356,602.966064 
	C805.156067,603.059021 818.375183,603.059021 832.028687,603.059021 
	C832.028687,573.550659 832.028687,544.847534 832.028687,516.186157 
	C833.966125,516.186157 835.457886,516.186157 836.962402,516.642944 
	C837.000854,521.426758 836.972107,525.754944 837.062256,530.080627 
	C837.363159,544.527405 836.821289,559.063965 838.289917,573.393188 
	C839.680725,586.964111 845.627380,598.657166 859.513245,604.167053 
	C866.761536,607.043274 874.219788,608.604675 882.466553,606.701477 
	C894.121704,606.476562 904.986816,604.851807 914.887817,599.054626 
	C913.786194,594.709351 912.765442,590.682861 911.744690,586.656433 
	C912.113037,586.432007 912.481323,586.207642 912.849609,585.983215 
	C915.325195,588.063843 917.727600,590.239624 920.287964,592.209961 
	C939.368408,606.893250 960.879395,609.214661 983.692383,604.416260 
	C998.292419,601.345520 1010.772705,594.613037 1020.445068,582.520203 
	C1021.467651,583.856506 1022.225708,585.170715 1022.580200,586.586060 
	C1024.340210,593.612122 1028.546265,598.750061 1034.704590,602.314514 
	C1045.363647,608.483826 1058.224365,607.980408 1067.067261,600.984497 
	C1076.079712,593.854492 1079.049438,584.408142 1076.523926,573.410095 
	C1074.078979,562.762512 1064.443726,554.737671 1053.866089,553.877747 
	C1040.121338,552.760254 1028.704468,558.836426 1023.777100,569.795654 
	C1023.134399,571.225098 1022.072144,572.465820 1020.946411,573.490845 
	C1012.170959,569.168884 1003.653442,565.150085 994.724976,561.174683 
	C985.770569,561.195435 982.072021,568.981567 975.436462,572.791748 
	C965.612854,575.123901 956.839539,573.857971 949.038330,567.863831 
	C943.211304,563.386475 941.007202,557.304504 941.207886,549.451660 
	C969.967102,549.451660 998.346741,549.451660 1026.878052,549.451660 
	C1026.878052,545.155823 1027.050537,541.494385 1026.850586,537.853394 
	C1025.325684,510.080902 1009.686890,490.491577 983.467041,483.656342 
	C969.995789,480.144562 956.471130,480.240723 942.746521,483.633972 
	C932.081421,485.761444 923.021118,490.773621 914.664368,497.271912 
	C913.566467,498.125641 911.909973,498.261108 910.499817,498.279694 
	C910.487366,493.580383 910.487366,489.330627 910.487366,484.662659 
	C901.970215,484.662659 894.053284,484.662659 885.629639,484.662659 
	C885.629639,469.861786 885.629639,455.490601 885.629639,440.928131 
	C871.716248,440.928131 858.315552,440.928131 844.549194,440.874695 
	C843.070007,441.179016 841.956604,441.536804 840.429810,441.906189 
	C836.574768,441.701935 837.050720,444.165497 837.041077,446.282288 
	C836.983459,458.987274 836.931152,471.692291 836.484253,484.512634 
	C821.057861,484.726105 806.024231,484.824219 790.710327,484.745239 
	C786.926819,484.945160 783.460205,485.373108 782.624512,489.870667 
	C780.634460,488.732910 779.088257,487.429993 777.316589,486.620361 
	C763.988586,480.529694 750.161438,479.769501 735.750732,482.784546 
	C721.410522,485.173248 709.740906,491.860931 700.599426,502.978668 
	C699.028503,504.889221 696.889221,506.332428 694.871094,507.675751 
	C687.187927,491.411743 673.086182,485.240631 656.987854,482.092804 
	C640.433105,478.855682 625.918823,483.643799 612.378662,494.666443 
	C612.089172,490.655945 611.881958,487.786224 611.682678,485.025269 
	C597.938049,485.025269 584.483887,485.025269 570.661377,484.984711 
	C569.175476,485.278076 568.057922,485.612000 566.592163,485.941742 
	C565.546997,485.944153 564.850037,485.950714 563.942017,485.558838 
	C550.164917,485.116211 536.598816,485.072021 522.659546,484.987610 
	C521.539795,484.992950 520.793213,485.038513 519.774048,485.111389 
	C518.663574,485.094635 517.825745,485.050568 516.578491,484.893250 
	C502.826111,484.900177 489.483032,485.020386 475.750916,485.071594 
	C473.241089,486.602173 471.120331,488.201721 468.655396,489.815491 
	C432.513855,471.756927 404.277954,481.551086 381.218750,514.680237 
	C381.218750,503.819153 381.218750,494.363159 381.218750,485.140594 
	C367.012909,485.140594 353.576447,485.140594 339.745148,485.071289 
	C336.201355,484.561768 335.152100,486.355438 334.647278,489.104736 
	C333.017700,488.911285 331.658173,488.915710 330.464722,488.472778 
	C325.673279,486.694611 321.055664,484.323730 316.150238,483.001251 
	C303.642273,479.629181 291.220856,480.995087 278.742096,484.467072 
	C266.090149,487.437897 256.632141,494.983215 248.582047,504.624817 
	C247.567184,505.840363 246.278534,506.827271 245.011841,507.577515 
	C242.188416,502.913269 240.136032,497.934570 236.634659,494.385193 
	C222.375015,479.930267 195.732147,476.800507 178.392303,487.414520 
	C172.394516,491.085815 167.000931,495.744202 161.691376,499.684570 
	C138.642731,476.385040 113.944283,475.208984 87.128899,494.166473 
	C86.884369,490.629333 86.696075,487.905731 86.493309,484.972748 
	C72.814880,484.972748 59.391983,484.972748 45.602295,484.930084 
	C44.120251,485.230530 43.005001,485.573639 41.602921,485.921722 
	C40.933449,485.935760 40.550808,485.944855 40.085541,485.494629 
	C40.002914,461.000031 40.002914,436.964752 40.002914,413.000000 
	C26.559351,413.000000 13.779675,413.000000 1.000000,413.000000 
M519.646484,425.050934 
	C512.964111,440.901520 520.889587,455.957977 537.830750,459.596741 
	C549.413086,462.084534 561.194519,456.327728 566.093262,445.786743 
	C570.829834,435.594696 567.865051,423.793060 558.776184,416.660645 
	C546.886658,407.330475 529.006714,410.936218 519.646484,425.050934 
z"/>
<path fill="#000000" opacity="1.000000" stroke="none" 
	d="
M1.000000,413.468658 
	C13.779675,413.000000 26.559351,413.000000 40.002914,413.000000 
	C40.002914,436.964752 40.002914,461.000031 39.995529,485.958679 
	C39.989937,525.580566 39.991726,564.279053 39.993515,602.977539 
	C27.305986,603.024048 14.618458,603.070618 1.465464,603.058594 
	C1.000000,539.979126 1.000000,476.958221 1.000000,413.468658 
z"/>
<path fill="#020202" opacity="1.000000" stroke="none" 
	d="
M45.969090,484.972748 
	C59.391983,484.972748 72.814880,484.972748 86.493309,484.972748 
	C86.696075,487.905731 86.884369,490.629333 87.128899,494.166473 
	C113.944283,475.208984 138.642731,476.385040 161.691376,499.684570 
	C167.000931,495.744202 172.394516,491.085815 178.392303,487.414520 
	C195.732147,476.800507 222.375015,479.930267 236.634659,494.385193 
	C240.136032,497.934570 242.188416,502.913269 245.006012,507.964020 
	C245.902771,511.467957 246.700485,514.242737 247.620956,517.444458 
	C253.298218,505.399750 261.056854,495.520538 272.379517,488.772705 
	C274.596893,487.451263 276.773376,486.061157 278.968719,484.702759 
	C291.220856,480.995087 303.642273,479.629181 316.150238,483.001251 
	C321.055664,484.323730 325.673279,486.694611 330.464722,488.472778 
	C331.658173,488.915710 333.017700,488.911285 334.601105,489.468689 
	C336.347717,491.582947 337.794128,493.341003 340.139954,496.192261 
	C340.139954,491.386627 340.139954,488.263611 340.139954,485.140594 
	C353.576447,485.140594 367.012909,485.140594 381.218750,485.140594 
	C381.218750,494.363159 381.218750,503.819153 381.218750,514.680237 
	C404.277954,481.551086 432.513855,471.756927 468.839294,490.119995 
	C471.493591,491.862274 473.619873,493.314209 476.139954,495.035065 
	C476.139954,491.310028 476.139954,488.225311 476.139954,485.140594 
	C489.483032,485.020386 502.826111,484.900177 516.599060,485.361145 
	C517.045166,506.884369 517.039551,527.826416 517.084106,548.768372 
	C517.123352,567.211548 517.218689,585.654663 517.289246,604.097778 
	C516.714172,610.051514 516.698425,616.124329 515.461609,621.937256 
	C511.370117,641.167114 499.088348,653.872253 481.170746,660.435120 
	C456.702515,669.397278 431.882690,669.254456 407.556488,659.329895 
	C395.104279,654.249573 385.804596,645.491699 379.615540,632.357788 
	C391.382904,626.743469 403.087250,621.159241 415.173065,615.393005 
	C421.639984,625.472839 431.085022,629.478638 442.145416,630.715149 
	C461.958893,632.930176 476.733978,617.857056 473.091003,598.409241 
	C456.910309,606.803894 439.769073,608.718994 422.262878,604.957458 
	C404.385345,601.116211 391.535553,589.981140 382.694824,573.868286 
	C382.281830,574.103577 381.868805,574.338867 381.455811,574.574158 
	C381.455811,583.906311 381.455811,593.238464 381.455811,603.120117 
	C367.828125,603.120117 354.879425,603.120117 341.430939,602.601257 
	C340.931152,598.216858 340.931152,594.351318 340.931152,589.415405 
	C337.617401,592.382080 335.211151,594.536377 332.804871,596.690613 
	C318.886688,606.439514 303.465393,608.533691 287.187195,605.172546 
	C270.783966,601.785461 258.355316,592.352173 248.198029,578.743774 
	C248.198029,586.577209 248.198029,594.410583 248.198029,603.119751 
	C234.334839,603.119751 221.133438,603.119751 207.436966,602.591309 
	C206.937592,600.730164 206.929764,599.397461 206.929504,598.064819 
	C206.925537,577.408264 206.994278,556.751404 206.890686,536.095337 
	C206.834229,524.841125 201.495193,517.109253 192.505234,515.133789 
	C189.391251,514.781616 186.659256,514.554199 183.927261,514.326782 
	C173.285599,515.543823 167.184708,522.514526 167.135101,533.942627 
	C167.042114,555.368774 167.107590,576.795593 167.107162,598.222168 
	C167.107132,599.679443 167.107162,601.136780 167.107162,603.065613 
	C153.499146,603.065613 140.259293,603.065613 126.621117,602.519653 
	C126.230583,593.017395 126.253380,584.061035 126.242645,575.104736 
	C126.226151,561.338928 126.470093,547.564331 126.046104,533.810669 
	C125.807678,526.076538 123.080650,519.251465 114.593842,515.992859 
	C110.483673,515.304443 106.697014,514.826721 102.910355,514.348999 
	C92.323563,515.860901 86.845406,522.330872 86.778580,533.990967 
	C86.658562,554.932190 86.742004,575.874634 86.740456,596.816528 
	C86.740326,598.628906 86.740433,600.441345 86.740433,603.119751 
	C73.342056,603.119751 60.137074,603.119751 46.436996,602.591309 
	C45.950966,563.032776 45.960030,524.002747 45.969090,484.972748 
M459.204773,517.949158 
	C455.110840,517.451965 451.016907,516.954773 446.080719,516.427917 
	C441.397156,518.351562 436.074036,519.423218 432.154907,522.365234 
	C422.057831,529.944824 419.286896,544.734070 424.828461,556.686462 
	C430.143646,568.150513 441.198303,573.129883 456.522278,570.878357 
	C467.362152,568.394592 474.203491,561.533630 476.491486,550.891357 
	C478.788971,540.205078 476.805054,530.216064 467.975983,522.748352 
	C465.668182,520.796448 462.608459,519.733459 459.204773,517.949158 
M320.542603,570.864746 
	C335.486450,567.043823 343.622528,553.877136 340.833038,538.028442 
	C338.511444,524.838013 326.189270,515.250854 312.063263,516.239380 
	C306.847382,518.122375 300.924438,519.004150 296.557098,522.088623 
	C286.234375,529.378967 283.260895,544.187866 288.596893,556.256653 
	C293.790741,568.003906 305.104553,573.214905 320.542603,570.864746 
z"/>
<path fill="#020202" opacity="1.000000" stroke="none" 
	d="
M782.928467,596.922241 
	C768.928284,606.668030 753.419617,608.525024 737.165771,605.083984 
	C720.933655,601.647583 708.840332,591.909485 698.542236,578.680542 
	C698.542236,586.628723 698.542236,594.576843 698.542236,603.065063 
	C684.554565,603.065063 671.287598,603.065063 657.624146,602.518677 
	C657.235779,594.310791 657.252991,586.649170 657.250000,578.987610 
	C657.244324,564.330688 657.375000,549.671570 657.164795,535.017517 
	C657.015015,524.579407 650.674011,516.253601 641.535339,514.106934 
	C639.605225,513.784607 638.052612,513.593262 636.499939,513.401978 
	C622.775208,513.335266 611.997681,523.845825 611.965271,537.476379 
	C611.913818,559.114990 611.951538,580.753784 611.951538,603.103394 
	C598.476196,603.103394 585.218323,603.103394 571.497681,602.569214 
	C571.033203,563.031738 571.031494,524.028503 571.029724,485.025269 
	C584.483887,485.025269 597.938049,485.025269 611.682678,485.025269 
	C611.881958,487.786224 612.089172,490.655945 612.378662,494.666443 
	C625.918823,483.643799 640.433105,478.855682 656.987854,482.092804 
	C673.086182,485.240631 687.187927,491.411743 694.858276,508.057678 
	C695.949646,511.498962 696.912415,514.242493 698.091309,517.601990 
	C706.018921,500.404907 718.207336,488.562866 735.999512,482.992859 
	C750.161438,479.769501 763.988586,480.529694 777.316589,486.620361 
	C779.088257,487.429993 780.634460,488.732910 782.921387,490.042358 
	C785.778870,491.827850 788.000061,493.378387 790.990662,495.466003 
	C790.990662,491.364594 790.990662,488.143433 790.990662,484.922302 
	C806.024231,484.824219 821.057861,484.726105 836.863647,484.640747 
	C838.699097,484.598785 839.762390,484.544098 841.233276,484.606293 
	C845.066040,485.327087 844.889771,483.058929 844.887024,480.772919 
	C844.870911,467.491364 844.900696,454.209747 844.914917,440.928131 
	C858.315552,440.928131 871.716248,440.928131 885.629639,440.928131 
	C885.629639,455.490601 885.629639,469.861786 885.629639,484.662659 
	C894.053284,484.662659 901.970215,484.662659 910.487366,484.662659 
	C910.487366,489.330627 910.487366,493.580383 910.319397,498.686584 
	C910.266052,501.799622 910.380615,504.056244 910.506042,506.525787 
	C915.755798,501.864624 920.313599,497.017548 925.656494,493.298279 
	C931.029541,489.558044 937.183899,486.940186 942.995911,483.830505 
	C956.471130,480.240723 969.995789,480.144562 983.467041,483.656342 
	C1009.686890,490.491577 1025.325684,510.080902 1026.850586,537.853394 
	C1027.050537,541.494385 1026.878052,545.155823 1026.878052,549.451660 
	C998.346741,549.451660 969.967102,549.451660 941.207886,549.451660 
	C941.007202,557.304504 943.211304,563.386475 949.038330,567.863831 
	C956.839539,573.857971 965.612854,575.123901 975.815979,572.910645 
	C984.452393,571.625183 989.838867,566.448608 995.135864,561.131287 
	C1003.653442,565.150085 1012.170959,569.168884 1021.161072,573.676025 
	C1021.992676,575.392517 1022.876648,576.763062 1022.590820,577.816223 
	C1022.132996,579.502991 1020.899841,580.979370 1019.994385,582.544739 
	C1010.772705,594.613037 998.292419,601.345520 983.692383,604.416260 
	C960.879395,609.214661 939.368408,606.893250 920.287964,592.209961 
	C917.727600,590.239624 915.325195,588.063843 912.849609,585.983215 
	C912.481323,586.207642 912.113037,586.432007 911.744690,586.656433 
	C912.765442,590.682861 913.786194,594.709351 914.887817,599.054626 
	C904.986816,604.851807 894.121704,606.476562 882.128723,606.499390 
	C876.234314,605.312744 871.103699,604.256897 865.787720,602.911316 
	C855.599548,597.817566 849.904114,589.441101 847.266357,579.101135 
	C845.767883,573.226990 845.124451,567.017883 844.979919,560.938660 
	C844.652832,547.179443 844.797913,533.406372 844.930115,519.640686 
	C844.959717,516.552429 844.099731,515.252258 840.562622,516.002930 
	C839.091675,516.016174 838.020630,516.101135 836.949585,516.186157 
	C835.457886,516.186157 833.966125,516.186157 832.028687,516.186157 
	C832.028687,544.847534 832.028687,573.550659 832.028687,603.059021 
	C818.375183,603.059021 805.156067,603.059021 791.550720,602.517944 
	C791.164490,598.167969 791.164490,594.358948 791.164490,589.673340 
	C787.811768,592.624268 785.370117,594.773254 782.928467,596.922241 
M771.042236,517.122192 
	C767.995850,516.887817 764.949402,516.653442 761.151428,516.347839 
	C756.828003,517.883972 752.017273,518.669006 748.272949,521.097961 
	C737.289001,528.223267 733.591675,542.970093 738.903687,555.754456 
	C743.959229,567.921753 755.447571,573.257812 771.474915,570.795105 
	C784.633667,567.016785 792.185486,556.771179 791.862732,543.134888 
	C791.560608,530.370361 783.452637,519.903137 771.042236,517.122192 
M899.274597,516.020020 
	C898.828125,516.093750 898.381592,516.167542 897.030396,516.054626 
	C893.300903,516.054626 889.571472,516.054626 885.853882,516.054626 
	C885.853882,530.480469 885.798523,544.211487 885.912598,557.941040 
	C885.930054,560.039490 886.459106,562.237366 887.226685,564.203796 
	C888.688232,567.948364 891.245361,570.264587 896.354797,569.525696 
	C898.507690,568.891663 900.660583,568.257568 903.032959,567.558899 
	C896.658325,549.909607 897.210571,532.934814 904.979187,516.089294 
	C902.883240,516.089294 901.419983,516.089294 899.274597,516.020020 
M985.709229,522.609802 
	C980.995239,510.975891 970.810608,505.786163 957.981628,508.480804 
	C948.433960,510.486298 942.254517,517.823608 942.640442,526.585388 
	C957.194214,526.585388 971.739929,526.585388 986.585571,526.585388 
	C986.262817,525.230042 986.040833,524.297852 985.709229,522.609802 
z"/>
<path fill="#010101" opacity="1.000000" stroke="none" 
	d="
M523.032654,485.027832 
	C536.598816,485.072021 550.164917,485.116211 563.846191,486.021698 
	C563.964478,525.556763 563.967651,564.230469 563.970825,602.904236 
	C550.634521,602.969971 537.298157,603.035767 523.499695,602.567749 
	C523.035889,563.031921 523.034241,524.029846 523.032654,485.027832 
z"/>
<path fill="#040404" opacity="1.000000" stroke="none" 
	d="
M1020.445007,582.520203 
	C1020.899841,580.979370 1022.132996,579.502991 1022.590820,577.816223 
	C1022.876648,576.763062 1021.992676,575.392517 1021.418945,573.979126 
	C1022.072144,572.465820 1023.134399,571.225098 1023.777100,569.795654 
	C1028.704468,558.836426 1040.121338,552.760254 1053.866089,553.877747 
	C1064.443726,554.737671 1074.078979,562.762512 1076.523926,573.410095 
	C1079.049438,584.408142 1076.079712,593.854492 1067.067261,600.984497 
	C1058.224365,607.980408 1045.363647,608.483826 1034.704590,602.314514 
	C1028.546265,598.750061 1024.340210,593.612122 1022.580200,586.586060 
	C1022.225708,585.170715 1021.467651,583.856506 1020.445007,582.520203 
z"/>
<path fill="#040404" opacity="1.000000" stroke="none" 
	d="
M519.857666,424.758789 
	C529.006714,410.936218 546.886658,407.330475 558.776184,416.660645 
	C567.865051,423.793060 570.829834,435.594696 566.093262,445.786743 
	C561.194519,456.327728 549.413086,462.084534 537.830750,459.596741 
	C520.889587,455.957977 512.964111,440.901520 519.857666,424.758789 
z"/>
<path fill="#8A8A8A" opacity="1.000000" stroke="none" 
	d="
M45.602295,484.930084 
	C45.960030,524.002747 45.950966,563.032776 45.971874,602.530579 
	C44.923290,603.087158 43.844738,603.175903 42.390072,602.764343 
	C41.972557,563.481628 41.931152,524.699158 41.889748,485.916748 
	C43.005001,485.573639 44.120251,485.230530 45.602295,484.930084 
z"/>
<path fill="#949494" opacity="1.000000" stroke="none" 
	d="
M570.661377,484.984711 
	C571.031494,524.028503 571.033203,563.031738 571.035522,602.501526 
	C569.947388,603.071533 568.858521,603.174988 567.398315,602.773926 
	C566.998047,563.494934 566.969238,524.720398 566.940430,485.945923 
	C568.057922,485.612000 569.175476,485.278076 570.661377,484.984711 
z"/>
<path fill="#CACACA" opacity="1.000000" stroke="none" 
	d="
M836.962402,516.642944 
	C838.020630,516.101135 839.091675,516.016174 840.584229,516.466187 
	C841.016968,532.803467 840.804932,548.610229 841.119263,564.406433 
	C841.323792,574.687378 843.931824,584.502441 850.078247,592.953796 
	C853.979492,598.318054 858.840332,602.636536 865.973022,603.201050 
	C871.103699,604.256897 876.234314,605.312744 881.702820,606.570679 
	C874.219788,608.604675 866.761536,607.043274 859.513245,604.167053 
	C845.627380,598.657166 839.680725,586.964111 838.289917,573.393188 
	C836.821289,559.063965 837.363159,544.527405 837.062256,530.080627 
	C836.972107,525.754944 837.000854,521.426758 836.962402,516.642944 
z"/>
<path fill="#C5C5C5" opacity="1.000000" stroke="none" 
	d="
M102.997520,514.683167 
	C106.697014,514.826721 110.483673,515.304443 114.600838,516.338379 
	C121.384811,523.918030 123.102791,532.350708 123.006958,541.638611 
	C122.794724,562.204956 122.986862,582.775513 123.014084,603.344360 
	C119.047241,605.206665 118.971924,602.680908 118.975410,599.852722 
	C119.000412,579.553833 118.997902,559.254883 118.984200,538.955994 
	C118.975540,526.125732 114.640968,519.624207 102.997520,514.683167 
z"/>
<path fill="#CDCDCD" opacity="1.000000" stroke="none" 
	d="
M183.988861,514.661743 
	C186.659256,514.554199 189.391251,514.781616 192.570068,515.457397 
	C200.294907,521.270020 203.111191,528.612610 203.060318,537.483582 
	C202.934509,559.418945 203.002686,581.355347 202.992889,603.291382 
	C198.821182,605.371277 199.051712,602.448914 199.051300,599.813171 
	C199.048172,579.871338 198.677780,559.919922 199.188263,539.991150 
	C199.495361,528.002441 195.655472,519.362671 183.988861,514.661743 
z"/>
<path fill="#C5C5C5" opacity="1.000000" stroke="none" 
	d="
M636.313721,513.743286 
	C638.052612,513.593262 639.605225,513.784607 641.604248,514.427429 
	C651.060974,521.359131 654.161621,530.326294 654.021606,541.168213 
	C653.754089,561.889404 653.987976,582.617065 654.013733,603.342041 
	C650.073608,605.200562 649.975159,602.706787 649.978943,599.874268 
	C650.005493,580.136536 649.841064,560.397217 650.052734,540.661804 
	C650.168640,529.850952 646.727356,521.237427 636.989563,515.725586 
	C636.537476,515.469666 636.407532,514.644531 636.313721,513.743286 
z"/>
<path fill="#BABABA" opacity="1.000000" stroke="none" 
	d="
M517.583496,604.106018 
	C517.218689,585.654663 517.123352,567.211548 517.084106,548.768372 
	C517.039551,527.826416 517.045166,506.884369 517.008423,485.474426 
	C517.825745,485.050568 518.663574,485.094635 519.744629,485.571960 
	C520.005798,525.115967 520.023926,564.226746 520.041992,603.337463 
	C519.320557,603.596436 518.599182,603.855347 517.583496,604.106018 
z"/>
<path fill="#CACACA" opacity="1.000000" stroke="none" 
	d="
M566.592224,485.941742 
	C566.969238,524.720398 566.998047,563.494934 566.985657,602.761719 
	C566.044495,603.323486 565.144470,603.392944 564.107666,603.183350 
	C563.967651,564.230469 563.964478,525.556763 564.057129,486.420166 
	C564.850037,485.950714 565.546997,485.944153 566.592224,485.941742 
z"/>
<path fill="#949494" opacity="1.000000" stroke="none" 
	d="
M520.421814,603.326355 
	C520.023926,564.226746 520.005798,525.115967 520.017212,485.544678 
	C520.793213,485.038513 521.539795,484.992950 522.659546,484.987610 
	C523.034241,524.029846 523.035889,563.031921 523.037598,602.500366 
	C522.292297,603.083008 521.546936,603.199158 520.421814,603.326355 
z"/>
<path fill="#8A8A8A" opacity="1.000000" stroke="none" 
	d="
M203.396683,603.278198 
	C203.002686,581.355347 202.934509,559.418945 203.060318,537.483582 
	C203.111191,528.612610 200.294907,521.270020 192.952057,515.582214 
	C201.495193,517.109253 206.834229,524.841125 206.890686,536.095337 
	C206.994278,556.751404 206.925537,577.408264 206.929504,598.064819 
	C206.929764,599.397461 206.937592,600.730164 206.971832,602.530640 
	C205.934677,603.087280 204.867584,603.176147 203.396683,603.278198 
z"/>
<path fill="#8E8E8E" opacity="1.000000" stroke="none" 
	d="
M654.407593,603.318420 
	C653.987976,582.617065 653.754089,561.889404 654.021606,541.168213 
	C654.161621,530.326294 651.060974,521.359131 641.981689,514.558472 
	C650.674011,516.253601 657.015015,524.579407 657.164795,535.017517 
	C657.375000,549.671570 657.244324,564.330688 657.250000,578.987610 
	C657.252991,586.649170 657.235779,594.310791 657.169678,602.430908 
	C656.341614,603.024536 655.571472,603.159668 654.407593,603.318420 
z"/>
<path fill="#8E8E8E" opacity="1.000000" stroke="none" 
	d="
M123.407593,603.320068 
	C122.986862,582.775513 122.794724,562.204956 123.006958,541.638611 
	C123.102791,532.350708 121.384811,523.918030 114.924332,516.549194 
	C123.080650,519.251465 125.807678,526.076538 126.046104,533.810669 
	C126.470093,547.564331 126.226151,561.338928 126.242645,575.104736 
	C126.253380,584.061035 126.230583,593.017395 126.166473,602.432495 
	C125.340454,603.026123 124.570770,603.160889 123.407593,603.320068 
z"/>
<path fill="#CACACA" opacity="1.000000" stroke="none" 
	d="
M41.602921,485.921722 
	C41.931152,524.699158 41.972557,563.481628 41.982063,602.754272 
	C41.356762,603.325073 40.763363,603.405579 40.081741,603.231812 
	C39.991726,564.279053 39.989937,525.580566 40.078156,486.417999 
	C40.550808,485.944855 40.933449,485.935760 41.602921,485.921722 
z"/>
<path fill="#9C9C9C" opacity="1.000000" stroke="none" 
	d="
M735.750732,482.784546 
	C718.207336,488.562866 706.018921,500.404907 698.091309,517.601990 
	C696.912415,514.242493 695.949646,511.498962 694.999634,508.373474 
	C696.889221,506.332428 699.028503,504.889221 700.599426,502.978668 
	C709.740906,491.860931 721.410522,485.173248 735.750732,482.784546 
z"/>
<path fill="#9C9C9C" opacity="1.000000" stroke="none" 
	d="
M278.742096,484.467102 
	C276.773376,486.061157 274.596893,487.451263 272.379517,488.772705 
	C261.056854,495.520538 253.298218,505.399750 247.620956,517.444458 
	C246.700485,514.242737 245.902771,511.467957 245.110901,508.306641 
	C246.278534,506.827271 247.567184,505.840363 248.582047,504.624817 
	C256.632141,494.983215 266.090149,487.437897 278.742096,484.467102 
z"/>
<path fill="#8A8A8A" opacity="1.000000" stroke="none" 
	d="
M844.549194,440.874695 
	C844.900696,454.209747 844.870911,467.491364 844.887024,480.772919 
	C844.889771,483.058929 845.066040,485.327087 841.274109,484.173218 
	C840.885925,469.713745 840.864563,455.804199 840.843140,441.894592 
	C841.956604,441.536804 843.070007,441.179016 844.549194,440.874695 
z"/>
<path fill="#CDCDCD" opacity="1.000000" stroke="none" 
	d="
M840.429810,441.906189 
	C840.864563,455.804199 840.885925,469.713745 840.866455,484.056396 
	C839.762390,484.544098 838.699097,484.598785 837.256470,484.525360 
	C836.931152,471.692291 836.983459,458.987274 837.041077,446.282288 
	C837.050720,444.165497 836.574768,441.701935 840.429810,441.906189 
z"/>
<path fill="#8A8A8A" opacity="1.000000" stroke="none" 
	d="
M942.746521,483.633972 
	C937.183899,486.940186 931.029541,489.558044 925.656494,493.298279 
	C920.313599,497.017548 915.755798,501.864624 910.506042,506.525787 
	C910.380615,504.056244 910.266052,501.799622 910.331848,499.136169 
	C911.909973,498.261108 913.566467,498.125641 914.664368,497.271912 
	C923.021118,490.773621 932.081421,485.761444 942.746521,483.633972 
z"/>
<path fill="#8A8A8A" opacity="1.000000" stroke="none" 
	d="
M333.173340,596.915955 
	C335.211151,594.536377 337.617401,592.382080 340.931152,589.415405 
	C340.931152,594.351318 340.931152,598.216858 340.965485,602.542603 
	C338.961548,603.253357 336.923279,603.503906 334.789062,603.766296 
	C334.308197,601.212036 333.924988,599.176697 333.173340,596.915955 
z"/>
<path fill="#949494" opacity="1.000000" stroke="none" 
	d="
M783.301270,597.114075 
	C785.370117,594.773254 787.811768,592.624268 791.164490,589.673340 
	C791.164490,594.358948 791.164490,598.167969 791.091125,602.424988 
	C789.006836,603.219360 786.995911,603.565613 784.839355,603.937012 
	C784.389343,601.376099 784.031677,599.341003 783.301270,597.114075 
z"/>
<path fill="#9C9C9C" opacity="1.000000" stroke="none" 
	d="
M994.724976,561.174683 
	C989.838867,566.448608 984.452393,571.625183 976.217773,572.800598 
	C982.072021,568.981567 985.770569,561.195435 994.724976,561.174683 
z"/>
<path fill="#9C9C9C" opacity="1.000000" stroke="none" 
	d="
M790.710327,484.745239 
	C790.990662,488.143433 790.990662,491.364594 790.990662,495.466003 
	C788.000061,493.378387 785.778870,491.827850 783.260742,490.105652 
	C783.460205,485.373108 786.926819,484.945160 790.710327,484.745239 
z"/>
<path fill="#8E8E8E" opacity="1.000000" stroke="none" 
	d="
M475.750916,485.071594 
	C476.139954,488.225311 476.139954,491.310028 476.139954,495.035065 
	C473.619873,493.314209 471.493591,491.862274 469.183472,490.105835 
	C471.120331,488.201721 473.241089,486.602173 475.750916,485.071594 
z"/>
<path fill="#8E8E8E" opacity="1.000000" stroke="none" 
	d="
M339.745148,485.071289 
	C340.139954,488.263611 340.139954,491.386627 340.139954,496.192261 
	C337.794128,493.341003 336.347717,491.582947 334.947510,489.460907 
	C335.152100,486.355438 336.201355,484.561768 339.745148,485.071289 
z"/>
<path fill="#FAFAFA" opacity="1.000000" stroke="none" 
	d="
M319.794281,570.625793 
	C305.104553,573.214905 293.790741,568.003906 288.596893,556.256653 
	C283.260895,544.187866 286.234375,529.378967 296.557098,522.088623 
	C300.924438,519.004150 306.847382,518.122375 312.575531,516.568481 
	C331.383301,523.283081 338.957947,539.187927 332.192017,556.885742 
	C329.819489,563.091553 324.861816,566.890442 319.794281,570.625793 
z"/>
<path fill="#FEFEFE" opacity="1.000000" stroke="none" 
	d="
M455.780365,570.628113 
	C441.198303,573.129883 430.143646,568.150513 424.828461,556.686462 
	C419.286896,544.734070 422.057831,529.944824 432.154907,522.365234 
	C436.074036,519.423218 441.397156,518.351562 446.651245,516.805298 
	C447.980011,517.463257 448.719971,517.815491 449.499115,518.014038 
	C469.383636,523.081238 475.384033,546.722839 464.566528,561.792480 
	C463.343201,563.496643 462.161255,565.230469 460.743469,567.195557 
	C458.944702,568.503113 457.362518,569.565613 455.780365,570.628113 
z"/>
<path fill="#8E8E8E" opacity="1.000000" stroke="none" 
	d="
M320.168457,570.745239 
	C324.861816,566.890442 329.819489,563.091553 332.192017,556.885742 
	C338.957947,539.187927 331.383301,523.283081 312.967316,516.575745 
	C326.189270,515.250854 338.511444,524.838013 340.833038,538.028442 
	C343.622528,553.877136 335.486450,567.043823 320.168457,570.745239 
z"/>
<path fill="#8A8A8A" opacity="1.000000" stroke="none" 
	d="
M456.151306,570.753235 
	C457.362518,569.565613 458.944702,568.503113 461.093811,567.201050 
	C476.378723,558.850647 477.644043,532.328064 463.132111,521.673035 
	C461.888428,520.759949 460.965820,519.409546 459.894073,518.262268 
	C462.608459,519.733459 465.668182,520.796448 467.975983,522.748352 
	C476.805054,530.216064 478.788971,540.205078 476.491486,550.891357 
	C474.203491,561.533630 467.362152,568.394592 456.151306,570.753235 
z"/>
<path fill="#CACACA" opacity="1.000000" stroke="none" 
	d="
M459.549438,518.105713 
	C460.965820,519.409546 461.888428,520.759949 463.132111,521.673035 
	C477.644043,532.328064 476.378723,558.850647 461.310394,566.956055 
	C462.161255,565.230469 463.343201,563.496643 464.566528,561.792480 
	C475.384033,546.722839 469.383636,523.081238 449.499115,518.014038 
	C448.719971,517.815491 447.980011,517.463257 447.072388,516.820190 
	C451.016907,516.954773 455.110840,517.451965 459.549438,518.105713 
z"/>
<path fill="#FEFEFE" opacity="1.000000" stroke="none" 
	d="
M770.749023,570.545959 
	C755.447571,573.257812 743.959229,567.921753 738.903687,555.754456 
	C733.591675,542.970093 737.289001,528.223267 748.272949,521.097961 
	C752.017273,518.669006 756.828003,517.883972 761.611023,516.719238 
	C762.642212,517.377686 763.184998,517.768982 763.789734,517.936462 
	C776.698059,521.511047 784.516785,531.091248 783.830444,544.414001 
	C783.504211,550.745972 780.853577,556.958191 778.954468,563.369873 
	C776.018372,565.858643 773.383667,568.202332 770.749023,570.545959 
z"/>
<path fill="#E9E9E9" opacity="1.000000" stroke="none" 
	d="
M985.764038,522.987732 
	C986.040833,524.297852 986.262817,525.230042 986.585571,526.585388 
	C971.739929,526.585388 957.194214,526.585388 942.640442,526.585388 
	C942.254517,517.823608 948.433960,510.486298 957.981628,508.480804 
	C970.810608,505.786163 980.995239,510.975891 985.764038,522.987732 
z"/>
<path fill="#FEFEFE" opacity="1.000000" stroke="none" 
	d="
M895.674438,569.170715 
	C891.245361,570.264587 888.688232,567.948364 887.226685,564.203796 
	C886.459106,562.237366 885.930054,560.039490 885.912598,557.941040 
	C885.798523,544.211487 885.853882,530.480469 885.853882,516.054626 
	C889.571472,516.054626 893.300903,516.054626 897.402893,516.486938 
	C897.241516,518.123230 896.678467,519.315186 896.178284,520.532898 
	C889.701904,536.300781 888.896362,552.109680 895.807434,568.172058 
	C895.548218,568.622131 895.521606,568.887329 895.674438,569.170715 
z"/>
<path fill="#8A8A8A" opacity="1.000000" stroke="none" 
	d="
M865.787720,602.911316 
	C858.840332,602.636536 853.979492,598.318054 850.078247,592.953796 
	C843.931824,584.502441 841.323792,574.687378 841.119263,564.406433 
	C840.804932,548.610229 841.016968,532.803467 840.984131,516.537964 
	C844.099731,515.252258 844.959717,516.552429 844.930115,519.640686 
	C844.797913,533.406372 844.652832,547.179443 844.979919,560.938660 
	C845.124451,567.017883 845.767883,573.226990 847.266357,579.101135 
	C849.904114,589.441101 855.599548,597.817566 865.787720,602.911316 
z"/>
<path fill="#8A8A8A" opacity="1.000000" stroke="none" 
	d="
M896.014648,569.348206 
	C895.521606,568.887329 895.548218,568.622131 896.194763,568.172974 
	C900.489502,567.596619 898.485413,565.363770 897.927979,563.708801 
	C894.575684,553.755615 894.001831,543.576233 895.841919,533.318359 
	C896.882690,527.515991 898.563965,521.828552 899.956665,516.089294 
	C901.419983,516.089294 902.883240,516.089294 904.979187,516.089294 
	C897.210571,532.934814 896.658325,549.909607 903.032959,567.558899 
	C900.660583,568.257568 898.507690,568.891663 896.014648,569.348206 
z"/>
<path fill="#8A8A8A" opacity="1.000000" stroke="none" 
	d="
M771.111938,570.670532 
	C773.383667,568.202332 776.018372,565.858643 779.290039,563.330566 
	C791.154602,554.392883 790.722595,532.250305 779.139465,523.043640 
	C776.729858,521.128357 774.300049,519.238525 771.879578,517.336975 
	C783.452637,519.903137 791.560608,530.370361 791.862732,543.134888 
	C792.185486,556.771179 784.633667,567.016785 771.111938,570.670532 
z"/>
<path fill="#CACACA" opacity="1.000000" stroke="none" 
	d="
M771.460938,517.229614 
	C774.300049,519.238525 776.729858,521.128357 779.139465,523.043640 
	C790.722595,532.250305 791.154602,554.392883 779.591492,563.185425 
	C780.853577,556.958191 783.504211,550.745972 783.830444,544.414001 
	C784.516785,531.091248 776.698059,521.511047 763.789734,517.936462 
	C763.184998,517.768982 762.642212,517.377686 761.986816,516.754883 
	C764.949402,516.653442 767.995850,516.887817 771.460938,517.229614 
z"/>
<path fill="#CACACA" opacity="1.000000" stroke="none" 
	d="
M899.615601,516.054688 
	C898.563965,521.828552 896.882690,527.515991 895.841919,533.318359 
	C894.001831,543.576233 894.575684,553.755615 897.927979,563.708801 
	C898.485413,565.363770 900.489502,567.596619 896.247864,567.969971 
	C888.896362,552.109680 889.701904,536.300781 896.178284,520.532898 
	C896.678467,519.315186 897.241516,518.123230 897.855225,516.580322 
	C898.381592,516.167542 898.828125,516.093750 899.615601,516.054688 
z"/>
</svg>