<svg xmlns="http://www.w3.org/2000/svg" xmlns:xlink="http://www.w3.org/1999/xlink" width="500" zoomAndPan="magnify" viewBox="0 0 375 374.999991" height="500" preserveAspectRatio="xMidYMid meet" version="1.0"><defs><g/><clipPath id="542d2dafbd"><path d="M 291 147 L 369 147 L 369 225 L 291 225 Z M 291 147 " clip-rule="nonzero"/></clipPath><clipPath id="6e68805b42"><path d="M 257.445312 185.597656 L 329.570312 113.472656 L 408.058594 191.960938 L 335.933594 264.085938 Z M 257.445312 185.597656 " clip-rule="nonzero"/></clipPath><clipPath id="101380be48"><path d="M 257.445312 185.597656 L 329.570312 113.472656 L 408.058594 191.960938 L 335.933594 264.085938 Z M 257.445312 185.597656 " clip-rule="nonzero"/></clipPath><clipPath id="d79d3582b1"><path d="M 257.445312 185.597656 L 329.570312 113.472656 L 408.058594 191.960938 L 335.933594 264.085938 Z M 257.445312 185.597656 " clip-rule="nonzero"/></clipPath><clipPath id="22053d3222"><path d="M 294 150 L 372 150 L 372 228 L 294 228 Z M 294 150 " clip-rule="nonzero"/></clipPath><clipPath id="993b182317"><path d="M 257.445312 185.597656 L 329.570312 113.472656 L 408.058594 191.960938 L 335.933594 264.085938 Z M 257.445312 185.597656 " clip-rule="nonzero"/></clipPath><clipPath id="4f7fb66158"><path d="M 257.445312 185.597656 L 329.570312 113.472656 L 408.058594 191.960938 L 335.933594 264.085938 Z M 257.445312 185.597656 " clip-rule="nonzero"/></clipPath><clipPath id="cd55bb0e4e"><path d="M 257.445312 185.597656 L 329.570312 113.472656 L 408.058594 191.960938 L 335.933594 264.085938 Z M 257.445312 185.597656 " clip-rule="nonzero"/></clipPath><clipPath id="19832f3165"><path d="M 297 153 L 375 153 L 375 231 L 297 231 Z M 297 153 " clip-rule="nonzero"/></clipPath><clipPath id="7c128bcffa"><path d="M 257.445312 185.597656 L 329.570312 113.472656 L 408.058594 191.960938 L 335.933594 264.085938 Z M 257.445312 185.597656 " clip-rule="nonzero"/></clipPath><clipPath id="52fd772a6c"><path d="M 257.445312 185.597656 L 329.570312 113.472656 L 408.058594 191.960938 L 335.933594 264.085938 Z M 257.445312 185.597656 " clip-rule="nonzero"/></clipPath><clipPath id="f30e2d140d"><path d="M 257.445312 185.597656 L 329.570312 113.472656 L 408.058594 191.960938 L 335.933594 264.085938 Z M 257.445312 185.597656 " clip-rule="nonzero"/></clipPath><clipPath id="591cf7fef1"><path d="M 113.121094 112.5 L 263.121094 112.5 L 263.121094 262.5 L 113.121094 262.5 Z M 113.121094 112.5 " clip-rule="nonzero"/></clipPath></defs><g clip-path="url(#542d2dafbd)"><g clip-path="url(#6e68805b42)"><g clip-path="url(#101380be48)"><g clip-path="url(#d79d3582b1)"><path stroke-linecap="butt" transform="matrix(0.0618466, 0.0000257778, 0.0000236213, 0.0618466, 278.559625, 134.589147)" fill="none" stroke-linejoin="miter" d="M 242.994414 243.013879 L 1406.785649 242.97093 L 1406.783255 1406.82531 L 242.992044 1406.805099 Z M 242.994414 243.013879 " stroke="#000000" stroke-width="2.835" stroke-opacity="1" stroke-miterlimit="10"/></g></g></g></g><g clip-path="url(#22053d3222)"><g clip-path="url(#993b182317)"><g clip-path="url(#4f7fb66158)"><g clip-path="url(#cd55bb0e4e)"><path stroke-linecap="butt" transform="matrix(0.0618466, 0.0000257778, 0.0000236213, 0.0618466, 281.707868, 133.286125)" fill="none" stroke-linejoin="miter" d="M 242.970069 314.989678 L 1406.82444 315.009863 L 1406.82207 1478.801083 L 243.030859 1478.780871 Z M 242.970069 314.989678 " stroke="#000000" stroke-width="2.835" stroke-opacity="1" stroke-miterlimit="10"/></g></g></g></g><g clip-path="url(#19832f3165)"><g clip-path="url(#7c128bcffa)"><g clip-path="url(#52fd772a6c)"><g clip-path="url(#f30e2d140d)"><path stroke-linecap="butt" transform="matrix(0.0618466, 0.0000257778, 0.0000236213, 0.0618466, 284.856168, 131.983057)" fill="none" stroke-linejoin="miter" d="M 243.007928 387.029348 L 1406.799163 386.986399 L 1406.796794 1550.777619 L 243.005559 1550.820568 Z M 243.007928 387.029348 " stroke="#000000" stroke-width="2.835" stroke-opacity="1" stroke-miterlimit="10"/></g></g></g></g><g clip-path="url(#591cf7fef1)"><path fill="#ffffff" d="M 263.121094 262.5 L 263.121094 261.902344 L 123.421875 261.902344 L 263.121094 253.171875 L 263.121094 252.570312 L 123.457031 261.300781 L 263.121094 243.84375 L 263.121094 243.238281 L 123.53125 260.6875 L 263.121094 234.515625 L 263.121094 233.90625 L 123.636719 260.0625 L 263.121094 225.191406 L 263.121094 224.574219 L 123.78125 259.410156 L 263.121094 215.863281 L 263.121094 215.238281 L 123.964844 258.726562 L 263.121094 206.539062 L 263.121094 205.902344 L 124.175781 258.007812 L 263.121094 197.21875 L 263.121094 196.566406 L 124.414062 257.25 L 263.121094 187.894531 L 263.121094 187.226562 L 124.683594 256.445312 L 263.121094 178.574219 L 263.121094 177.890625 L 124.976562 255.597656 L 263.121094 169.253906 L 263.121094 168.550781 L 125.289062 254.695312 L 263.121094 159.933594 L 263.121094 159.210938 L 125.628906 253.738281 L 263.121094 150.617188 L 263.121094 149.867188 L 125.988281 252.71875 L 263.121094 141.296875 L 263.121094 140.527344 L 126.367188 251.640625 L 263.121094 131.980469 L 263.121094 131.183594 L 126.757812 250.503906 L 263.121094 122.664062 L 263.121094 121.84375 L 127.164062 249.304688 L 263.121094 113.34375 L 263.121094 112.5 L 113.121094 262.5 Z M 263.121094 262.5 " fill-opacity="1" fill-rule="nonzero"/></g><g fill="#000000" fill-opacity="1"><g transform="translate(-4.129012, 225.129492)"><g><path d="M 7.359375 -68.484375 L 11.71875 -68.484375 L 11.71875 0 L 7.359375 0 Z M 7.359375 -68.484375 "/></g></g></g><g fill="#000000" fill-opacity="1"><g transform="translate(14.943253, 225.129492)"><g><path d="M 33.609375 -35.234375 C 34.691406 -37.722656 36.320312 -39.617188 38.5 -40.921875 C 40.6875 -42.222656 43.144531 -42.875 45.875 -42.875 C 50.351562 -42.875 53.632812 -41.570312 55.71875 -38.96875 C 57.8125 -36.363281 58.859375 -32.304688 58.859375 -26.796875 L 58.859375 0 L 54.765625 0 L 54.765625 -27.34375 C 54.765625 -31.519531 54.066406 -34.515625 52.671875 -36.328125 C 51.285156 -38.148438 48.988281 -39.0625 45.78125 -39.0625 C 42.269531 -39.0625 39.585938 -37.816406 37.734375 -35.328125 C 35.890625 -32.847656 34.96875 -29.25 34.96875 -24.53125 L 34.96875 0 L 30.875 0 L 30.875 -26.34375 C 30.875 -30.695312 30.117188 -33.90625 28.609375 -35.96875 C 27.097656 -38.03125 24.738281 -39.0625 21.53125 -39.0625 C 18.195312 -39.0625 15.617188 -37.726562 13.796875 -35.0625 C 11.984375 -32.394531 11.078125 -28.550781 11.078125 -23.53125 L 11.078125 0 L 7 0 L 7 -41.96875 L 11.078125 -41.96875 L 11.078125 -36.6875 L 11.265625 -36.6875 C 12.109375 -38.507812 13.484375 -39.992188 15.390625 -41.140625 C 17.296875 -42.296875 19.429688 -42.875 21.796875 -42.875 C 24.523438 -42.875 26.914062 -42.207031 28.96875 -40.875 C 31.03125 -39.539062 32.578125 -37.660156 33.609375 -35.234375 Z M 33.609375 -35.234375 "/></g></g></g><g fill="#000000" fill-opacity="1"><g transform="translate(80.787976, 225.129492)"><g><path d="M 39.78125 -34.703125 L 39.78125 -41.96875 L 43.875 -41.96875 L 43.875 0 L 39.78125 0 L 39.78125 -7.53125 L 39.59375 -7.53125 C 38.082031 -4.988281 35.875 -2.945312 32.96875 -1.40625 C 30.0625 0.132812 26.941406 0.90625 23.609375 0.90625 C 19.617188 0.90625 16.046875 -0.03125 12.890625 -1.90625 C 9.742188 -3.78125 7.289062 -6.425781 5.53125 -9.84375 C 3.78125 -13.269531 2.90625 -17.070312 2.90625 -21.25 C 2.90625 -27.550781 4.796875 -32.726562 8.578125 -36.78125 C 12.367188 -40.84375 17.320312 -42.875 23.4375 -42.875 C 26.757812 -42.875 29.859375 -42.144531 32.734375 -40.6875 C 35.617188 -39.238281 37.90625 -37.242188 39.59375 -34.703125 Z M 23.53125 -2.90625 C 28.425781 -2.90625 32.40625 -4.644531 35.46875 -8.125 C 38.53125 -11.613281 40.0625 -16.140625 40.0625 -21.703125 C 40.0625 -26.796875 38.46875 -30.960938 35.28125 -34.203125 C 32.101562 -37.441406 28.0625 -39.0625 23.15625 -39.0625 C 20.25 -39.0625 17.554688 -38.269531 15.078125 -36.6875 C 12.597656 -35.113281 10.628906 -32.9375 9.171875 -30.15625 C 7.722656 -27.375 7 -24.40625 7 -21.25 C 7 -17.863281 7.722656 -14.757812 9.171875 -11.9375 C 10.628906 -9.125 12.613281 -6.914062 15.125 -5.3125 C 17.632812 -3.707031 20.4375 -2.90625 23.53125 -2.90625 Z M 23.53125 -2.90625 "/></g></g></g><g fill="#000000" fill-opacity="1"><g transform="translate(131.647347, 225.129492)"><g><path d="M 40.421875 -34.703125 L 40.421875 -41.96875 L 44.5 -41.96875 L 44.5 -1.265625 C 44.5 3.878906 44 7.859375 43 10.671875 C 42.007812 13.484375 40.554688 15.875 38.640625 17.84375 C 36.734375 19.8125 34.492188 21.3125 31.921875 22.34375 C 29.347656 23.375 26.578125 23.890625 23.609375 23.890625 C 17.679688 23.890625 12.820312 22.238281 9.03125 18.9375 C 5.25 15.632812 3.207031 11.289062 2.90625 5.90625 L 7 5.90625 C 7.238281 10.082031 8.867188 13.488281 11.890625 16.125 C 14.921875 18.757812 18.707031 20.078125 23.25 20.078125 C 28.882812 20.078125 33.15625 18.257812 36.0625 14.625 C 38.96875 10.988281 40.421875 5.75 40.421875 -1.09375 L 40.421875 -7.265625 L 40.234375 -7.265625 C 38.359375 -4.785156 35.953125 -2.800781 33.015625 -1.3125 C 30.078125 0.164062 27.035156 0.90625 23.890625 0.90625 C 20.078125 0.90625 16.609375 -0.078125 13.484375 -2.046875 C 10.367188 -4.015625 7.929688 -6.691406 6.171875 -10.078125 C 4.421875 -13.472656 3.546875 -17.140625 3.546875 -21.078125 C 3.546875 -25.128906 4.46875 -28.832031 6.3125 -32.1875 C 8.15625 -35.550781 10.679688 -38.171875 13.890625 -40.046875 C 17.097656 -41.929688 20.613281 -42.875 24.4375 -42.875 C 30.976562 -42.875 36.242188 -40.148438 40.234375 -34.703125 Z M 24.15625 -2.90625 C 29.0625 -2.90625 33.039062 -4.644531 36.09375 -8.125 C 39.15625 -11.613281 40.6875 -16.140625 40.6875 -21.703125 C 40.6875 -26.796875 39.113281 -30.960938 35.96875 -34.203125 C 32.820312 -37.441406 28.765625 -39.0625 23.796875 -39.0625 C 20.953125 -39.0625 18.269531 -38.257812 15.75 -36.65625 C 13.238281 -35.050781 11.253906 -32.851562 9.796875 -30.0625 C 8.347656 -27.28125 7.625 -24.34375 7.625 -21.25 C 7.625 -17.863281 8.335938 -14.757812 9.765625 -11.9375 C 11.191406 -9.125 13.175781 -6.914062 15.71875 -5.3125 C 18.257812 -3.707031 21.070312 -2.90625 24.15625 -2.90625 Z M 24.15625 -2.90625 "/></g></g></g><g fill="#000000" fill-opacity="1"><g transform="translate(183.142461, 225.129492)"><g><path d="M 14.34375 -55.953125 C 14.34375 -54.921875 13.976562 -54.039062 13.25 -53.3125 C 12.53125 -52.582031 11.65625 -52.21875 10.625 -52.21875 C 9.59375 -52.21875 8.710938 -52.582031 7.984375 -53.3125 C 7.265625 -54.039062 6.90625 -54.921875 6.90625 -55.953125 C 6.90625 -56.984375 7.265625 -57.859375 7.984375 -58.578125 C 8.710938 -59.304688 9.59375 -59.671875 10.625 -59.671875 C 11.65625 -59.671875 12.53125 -59.304688 13.25 -58.578125 C 13.976562 -57.859375 14.34375 -56.984375 14.34375 -55.953125 Z M 8.53125 -41.96875 L 12.625 -41.96875 L 12.625 0 L 8.53125 0 Z M 8.53125 -41.96875 "/></g></g></g><g fill="#000000" fill-opacity="1"><g transform="translate(204.394413, 225.129492)"><g><path d="M 37.515625 0 L 33.421875 0 L 33.421875 -25.890625 C 33.421875 -30.847656 32.617188 -34.28125 31.015625 -36.1875 C 29.410156 -38.101562 26.851562 -39.0625 23.34375 -39.0625 C 15.164062 -39.0625 11.078125 -33.09375 11.078125 -21.15625 L 11.078125 0 L 7 0 L 7 -41.96875 L 11.078125 -41.96875 L 11.078125 -35.421875 L 11.265625 -35.421875 C 12.535156 -37.722656 14.242188 -39.539062 16.390625 -40.875 C 18.546875 -42.207031 20.984375 -42.875 23.703125 -42.875 C 28.429688 -42.875 31.914062 -41.507812 34.15625 -38.78125 C 36.394531 -36.0625 37.515625 -31.703125 37.515625 -25.703125 Z M 37.515625 0 "/></g></g></g><g fill="#000000" fill-opacity="1"><g transform="translate(248.896363, 225.129492)"><g><path d="M 7 -20.625 L 7 -20.078125 C 7 -15.109375 8.554688 -11.003906 11.671875 -7.765625 C 14.785156 -4.523438 18.828125 -2.90625 23.796875 -2.90625 C 26.878906 -2.90625 29.707031 -3.722656 32.28125 -5.359375 C 34.863281 -6.992188 36.972656 -9.351562 38.609375 -12.4375 L 42.046875 -10.4375 C 40.109375 -6.8125 37.550781 -4.015625 34.375 -2.046875 C 31.195312 -0.078125 27.488281 0.90625 23.25 0.90625 C 19.4375 0.90625 15.96875 -0.046875 12.84375 -1.953125 C 9.726562 -3.859375 7.289062 -6.488281 5.53125 -9.84375 C 3.78125 -13.207031 2.90625 -16.953125 2.90625 -21.078125 C 2.90625 -25.128906 3.78125 -28.820312 5.53125 -32.15625 C 7.289062 -35.488281 9.742188 -38.109375 12.890625 -40.015625 C 16.046875 -41.921875 19.5 -42.875 23.25 -42.875 C 29.25 -42.875 34.109375 -40.785156 37.828125 -36.609375 C 41.554688 -32.429688 43.421875 -27.101562 43.421875 -20.625 Z M 39.328125 -24.4375 C 38.785156 -28.613281 36.984375 -32.09375 33.921875 -34.875 C 30.867188 -37.664062 27.3125 -39.0625 23.25 -39.0625 C 20.582031 -39.0625 18.023438 -38.394531 15.578125 -37.0625 C 13.128906 -35.726562 11.128906 -33.910156 9.578125 -31.609375 C 8.035156 -29.304688 7.175781 -26.914062 7 -24.4375 Z M 39.328125 -24.4375 "/></g></g></g><g fill="#000000" fill-opacity="1"><g transform="translate(295.21472, 225.129492)"><g><path d="M 29.15625 -70.75 L 57.765625 0 L 53.3125 0 L 44.140625 -22.53125 L 14.078125 -22.53125 L 4.90625 0 L 0.453125 0 Z M 15.71875 -26.609375 L 42.5 -26.609375 L 29.15625 -59.671875 Z M 15.71875 -26.609375 "/></g></g></g><g fill="#000000" fill-opacity="1"><g transform="translate(353.430537, 225.129492)"><g><path d="M 7.359375 -68.484375 L 11.71875 -68.484375 L 11.71875 0 L 7.359375 0 Z M 7.359375 -68.484375 "/></g></g></g></svg>